<?xml version="1.0" encoding="UTF-8"?>
<svg id="katman_2" data-name="katman 2" xmlns="http://www.w3.org/2000/svg" viewBox="0 0 236.89 111.58">
  
  <g id="Layer_1" data-name="Layer 1">
    <g>
      <g>
        <polygon class="cls-1" points="97.63 55.79 97.63 111.58 125.53 111.58 125.53 27.9 97.63 55.79"></polygon>
        <polygon class="cls-1" points="236.88 0 236.88 0 208.98 0 181.32 27.67 181.32 0 181.31 0 181.31 0 153.42 0 125.53 27.9 153.42 27.9 153.42 55.78 153.42 55.79 153.42 111.58 181.32 111.58 181.32 27.9 208.99 27.9 208.99 111.58 236.88 83.68 236.89 83.68 236.89 0 236.88 0"></polygon>
        <g>
          <polygon class="cls-1" points="27.9 83.68 55.79 111.58 83.68 111.58 83.68 83.68 27.9 83.68"></polygon>
          <polygon class="cls-1" points="83.68 0 55.79 0 27.9 27.9 83.68 27.9 83.68 0"></polygon>
          <polygon class="cls-1" points="27.9 27.9 0 55.79 0 83.68 27.9 83.68 27.9 27.9"></polygon>
        </g>
      </g>
      <g>
        <path class="cls-1" d="M89.34,6.87V1.05h-2.06V0h5.28v1.05h-2.06v5.82h-1.16Z"></path>
        <path class="cls-1" d="M94.04,6.87V0h2.15l1.38,6.09h.17L99.11,0h2.15v6.86h-1.11V.83h-.17l-1.37,6.04h-1.91l-1.37-6.04h-.17v6.04h-1.12Z"></path>
      </g>
    </g>
  </g>
</svg>